<?xml version="1.0" ?>
<!-- Uploaded to: SVG Repo, www.svgrepo.com, Generator: SVG Repo Mixer Tools -->
<svg fill="#000000" width="800px" height="800px" viewBox="0 0 512 512" xmlns="http://www.w3.org/2000/svg">
<g id="Book">
<path d="M151.0032,413.4829h249.375a13.125,13.125,0,0,0,0-26.25H151.0032a13.125,13.125,0,0,1,0-26.25h249.375a13.125,13.125,0,0,0,0-26.25H151.0032a52.5,52.5,0,0,0-52.5,52.5v26.25a52.5,52.5,0,0,0,52.5,52.5h249.375a13.125,13.125,0,0,0,0-26.25H151.0032C133.8172,439.4616,133.6955,413.8311,151.0032,413.4829Z"/>
<path d="M413.4968,295.3472V59.1335A13.1165,13.1165,0,0,0,400.38,46.0171H164.1239V308.4829H400.3611A13.1356,13.1356,0,0,0,413.4968,295.3472Zm-54.6854-91.83h-140v-87.5h140Z"/>
<path d="M137.8739,47.7368a52.4746,52.4746,0,0,0-39.3771,50.78v230.119a78.4658,78.4658,0,0,1,39.3771-19.0028Z"/>
</g>
</svg>